<mxfile host="app.diagrams.net" agent="Mozilla/5.0 (Windows NT 10.0; Win64; x64) AppleWebKit/537.36 (KHTML, like Gecko) Chrome/130.0.0.0 Safari/537.36" version="24.8.3">
  <diagram id="x39rKmUlDmbBP2rv7d7g" name="Page-1">
    <mxGraphModel dx="1500" dy="796" grid="1" gridSize="10" guides="1" tooltips="1" connect="1" arrows="1" fold="1" page="1" pageScale="1" pageWidth="1169" pageHeight="1654" math="0" shadow="0">
      <root>
        <mxCell id="0" />
        <mxCell id="1" parent="0" />
        <mxCell id="-HPrDXW2o46b9N6nXztY-1" value="admin" style="rounded=0;whiteSpace=wrap;html=1;" parent="1" vertex="1">
          <mxGeometry x="50" y="100" width="90" height="40" as="geometry" />
        </mxCell>
        <mxCell id="-HPrDXW2o46b9N6nXztY-2" value="" style="rounded=0;whiteSpace=wrap;html=1;" parent="1" vertex="1">
          <mxGeometry x="50" y="140" width="580" height="40" as="geometry" />
        </mxCell>
        <mxCell id="-HPrDXW2o46b9N6nXztY-3" value="&lt;u&gt;adminId&lt;/u&gt;" style="rounded=0;whiteSpace=wrap;html=1;" parent="1" vertex="1">
          <mxGeometry x="50" y="140" width="90" height="40" as="geometry" />
        </mxCell>
        <mxCell id="-HPrDXW2o46b9N6nXztY-4" value="first_name" style="rounded=0;whiteSpace=wrap;html=1;" parent="1" vertex="1">
          <mxGeometry x="140" y="140" width="80" height="40" as="geometry" />
        </mxCell>
        <mxCell id="-HPrDXW2o46b9N6nXztY-5" value="last_name" style="rounded=0;whiteSpace=wrap;html=1;" parent="1" vertex="1">
          <mxGeometry x="220" y="140" width="80" height="40" as="geometry" />
        </mxCell>
        <mxCell id="-HPrDXW2o46b9N6nXztY-6" value="email_address" style="rounded=0;whiteSpace=wrap;html=1;" parent="1" vertex="1">
          <mxGeometry x="300" y="140" width="90" height="40" as="geometry" />
        </mxCell>
        <mxCell id="-HPrDXW2o46b9N6nXztY-7" value="phone_number" style="rounded=0;whiteSpace=wrap;html=1;" parent="1" vertex="1">
          <mxGeometry x="390" y="140" width="100" height="40" as="geometry" />
        </mxCell>
        <mxCell id="-HPrDXW2o46b9N6nXztY-8" value="password" style="rounded=0;whiteSpace=wrap;html=1;" parent="1" vertex="1">
          <mxGeometry x="490" y="140" width="80" height="40" as="geometry" />
        </mxCell>
        <mxCell id="-HPrDXW2o46b9N6nXztY-9" value="user" style="rounded=0;whiteSpace=wrap;html=1;" parent="1" vertex="1">
          <mxGeometry x="50" y="210" width="90" height="40" as="geometry" />
        </mxCell>
        <mxCell id="-HPrDXW2o46b9N6nXztY-10" value="" style="rounded=0;whiteSpace=wrap;html=1;" parent="1" vertex="1">
          <mxGeometry x="50" y="250" width="600" height="40" as="geometry" />
        </mxCell>
        <mxCell id="-HPrDXW2o46b9N6nXztY-11" value="&lt;u&gt;userId&lt;/u&gt;" style="rounded=0;whiteSpace=wrap;html=1;" parent="1" vertex="1">
          <mxGeometry x="50" y="250" width="90" height="40" as="geometry" />
        </mxCell>
        <mxCell id="-HPrDXW2o46b9N6nXztY-12" value="first_name" style="rounded=0;whiteSpace=wrap;html=1;" parent="1" vertex="1">
          <mxGeometry x="140" y="250" width="80" height="40" as="geometry" />
        </mxCell>
        <mxCell id="-HPrDXW2o46b9N6nXztY-13" value="last_name" style="rounded=0;whiteSpace=wrap;html=1;" parent="1" vertex="1">
          <mxGeometry x="220" y="250" width="80" height="40" as="geometry" />
        </mxCell>
        <mxCell id="-HPrDXW2o46b9N6nXztY-14" value="email_address" style="rounded=0;whiteSpace=wrap;html=1;" parent="1" vertex="1">
          <mxGeometry x="300" y="250" width="90" height="40" as="geometry" />
        </mxCell>
        <mxCell id="-HPrDXW2o46b9N6nXztY-15" value="phone_number" style="rounded=0;whiteSpace=wrap;html=1;" parent="1" vertex="1">
          <mxGeometry x="390" y="250" width="100" height="40" as="geometry" />
        </mxCell>
        <mxCell id="-HPrDXW2o46b9N6nXztY-16" value="password" style="rounded=0;whiteSpace=wrap;html=1;" parent="1" vertex="1">
          <mxGeometry x="490" y="250" width="80" height="40" as="geometry" />
        </mxCell>
        <mxCell id="-HPrDXW2o46b9N6nXztY-17" value="seller" style="rounded=0;whiteSpace=wrap;html=1;" parent="1" vertex="1">
          <mxGeometry x="50" y="330" width="90" height="40" as="geometry" />
        </mxCell>
        <mxCell id="-HPrDXW2o46b9N6nXztY-18" value="" style="rounded=0;whiteSpace=wrap;html=1;" parent="1" vertex="1">
          <mxGeometry x="50" y="370" width="600" height="40" as="geometry" />
        </mxCell>
        <mxCell id="-HPrDXW2o46b9N6nXztY-19" value="&lt;u&gt;sellerId&lt;/u&gt;" style="rounded=0;whiteSpace=wrap;html=1;" parent="1" vertex="1">
          <mxGeometry x="50" y="370" width="90" height="40" as="geometry" />
        </mxCell>
        <mxCell id="-HPrDXW2o46b9N6nXztY-20" value="first_name" style="rounded=0;whiteSpace=wrap;html=1;" parent="1" vertex="1">
          <mxGeometry x="140" y="370" width="80" height="40" as="geometry" />
        </mxCell>
        <mxCell id="-HPrDXW2o46b9N6nXztY-21" value="last_name" style="rounded=0;whiteSpace=wrap;html=1;" parent="1" vertex="1">
          <mxGeometry x="220" y="370" width="80" height="40" as="geometry" />
        </mxCell>
        <mxCell id="-HPrDXW2o46b9N6nXztY-22" value="email_address" style="rounded=0;whiteSpace=wrap;html=1;" parent="1" vertex="1">
          <mxGeometry x="300" y="370" width="90" height="40" as="geometry" />
        </mxCell>
        <mxCell id="-HPrDXW2o46b9N6nXztY-23" value="phone_number" style="rounded=0;whiteSpace=wrap;html=1;" parent="1" vertex="1">
          <mxGeometry x="390" y="370" width="100" height="40" as="geometry" />
        </mxCell>
        <mxCell id="-HPrDXW2o46b9N6nXztY-24" value="password" style="rounded=0;whiteSpace=wrap;html=1;" parent="1" vertex="1">
          <mxGeometry x="490" y="370" width="80" height="40" as="geometry" />
        </mxCell>
        <mxCell id="nLEHjyZ-f05mS-KULYMX-1" value="shop" style="rounded=0;whiteSpace=wrap;html=1;" vertex="1" parent="1">
          <mxGeometry x="50" y="450" width="90" height="40" as="geometry" />
        </mxCell>
        <mxCell id="nLEHjyZ-f05mS-KULYMX-2" value="" style="rounded=0;whiteSpace=wrap;html=1;" vertex="1" parent="1">
          <mxGeometry x="50" y="490" width="620" height="40" as="geometry" />
        </mxCell>
        <mxCell id="nLEHjyZ-f05mS-KULYMX-3" value="shop_id" style="rounded=0;whiteSpace=wrap;html=1;" vertex="1" parent="1">
          <mxGeometry x="50" y="490" width="90" height="40" as="geometry" />
        </mxCell>
        <mxCell id="nLEHjyZ-f05mS-KULYMX-4" value="shop_name" style="rounded=0;whiteSpace=wrap;html=1;" vertex="1" parent="1">
          <mxGeometry x="140" y="490" width="80" height="40" as="geometry" />
        </mxCell>
        <mxCell id="nLEHjyZ-f05mS-KULYMX-5" value="description" style="rounded=0;whiteSpace=wrap;html=1;" vertex="1" parent="1">
          <mxGeometry x="220" y="490" width="80" height="40" as="geometry" />
        </mxCell>
        <mxCell id="nLEHjyZ-f05mS-KULYMX-6" value="products" style="rounded=0;whiteSpace=wrap;html=1;" vertex="1" parent="1">
          <mxGeometry x="50" y="560" width="90" height="40" as="geometry" />
        </mxCell>
        <mxCell id="nLEHjyZ-f05mS-KULYMX-7" value="" style="rounded=0;whiteSpace=wrap;html=1;" vertex="1" parent="1">
          <mxGeometry x="50" y="600" width="600" height="40" as="geometry" />
        </mxCell>
        <mxCell id="nLEHjyZ-f05mS-KULYMX-8" value="&lt;u&gt;name&lt;/u&gt;" style="rounded=0;whiteSpace=wrap;html=1;" vertex="1" parent="1">
          <mxGeometry x="50" y="600" width="90" height="40" as="geometry" />
        </mxCell>
        <mxCell id="nLEHjyZ-f05mS-KULYMX-9" value="description" style="rounded=0;whiteSpace=wrap;html=1;" vertex="1" parent="1">
          <mxGeometry x="140" y="600" width="80" height="40" as="geometry" />
        </mxCell>
        <mxCell id="nLEHjyZ-f05mS-KULYMX-10" value="quantity" style="rounded=0;whiteSpace=wrap;html=1;" vertex="1" parent="1">
          <mxGeometry x="220" y="600" width="80" height="40" as="geometry" />
        </mxCell>
        <mxCell id="nLEHjyZ-f05mS-KULYMX-11" value="category" style="rounded=0;whiteSpace=wrap;html=1;" vertex="1" parent="1">
          <mxGeometry x="300" y="600" width="90" height="40" as="geometry" />
        </mxCell>
        <mxCell id="nLEHjyZ-f05mS-KULYMX-12" value="pictures" style="rounded=0;whiteSpace=wrap;html=1;" vertex="1" parent="1">
          <mxGeometry x="390" y="600" width="100" height="40" as="geometry" />
        </mxCell>
        <mxCell id="nLEHjyZ-f05mS-KULYMX-13" value="price" style="rounded=0;whiteSpace=wrap;html=1;" vertex="1" parent="1">
          <mxGeometry x="490" y="600" width="80" height="40" as="geometry" />
        </mxCell>
        <mxCell id="nLEHjyZ-f05mS-KULYMX-14" value="comment" style="rounded=0;whiteSpace=wrap;html=1;" vertex="1" parent="1">
          <mxGeometry x="50" y="670" width="90" height="40" as="geometry" />
        </mxCell>
        <mxCell id="nLEHjyZ-f05mS-KULYMX-15" value="" style="rounded=0;whiteSpace=wrap;html=1;" vertex="1" parent="1">
          <mxGeometry x="50" y="710" width="400" height="40" as="geometry" />
        </mxCell>
        <mxCell id="nLEHjyZ-f05mS-KULYMX-16" value="&lt;u&gt;comment_id&lt;/u&gt;" style="rounded=0;whiteSpace=wrap;html=1;" vertex="1" parent="1">
          <mxGeometry x="50" y="710" width="90" height="40" as="geometry" />
        </mxCell>
        <mxCell id="nLEHjyZ-f05mS-KULYMX-17" value="subject" style="rounded=0;whiteSpace=wrap;html=1;" vertex="1" parent="1">
          <mxGeometry x="140" y="710" width="80" height="40" as="geometry" />
        </mxCell>
        <mxCell id="nLEHjyZ-f05mS-KULYMX-18" value="time" style="rounded=0;whiteSpace=wrap;html=1;" vertex="1" parent="1">
          <mxGeometry x="220" y="710" width="80" height="40" as="geometry" />
        </mxCell>
        <mxCell id="nLEHjyZ-f05mS-KULYMX-22" value="Rating" style="rounded=0;whiteSpace=wrap;html=1;" vertex="1" parent="1">
          <mxGeometry x="50" y="770" width="90" height="40" as="geometry" />
        </mxCell>
        <mxCell id="nLEHjyZ-f05mS-KULYMX-23" value="" style="rounded=0;whiteSpace=wrap;html=1;" vertex="1" parent="1">
          <mxGeometry x="50" y="810" width="400" height="40" as="geometry" />
        </mxCell>
        <mxCell id="nLEHjyZ-f05mS-KULYMX-24" value="&lt;u&gt;rating_id&lt;/u&gt;" style="rounded=0;whiteSpace=wrap;html=1;" vertex="1" parent="1">
          <mxGeometry x="50" y="810" width="90" height="40" as="geometry" />
        </mxCell>
        <mxCell id="nLEHjyZ-f05mS-KULYMX-25" value="value" style="rounded=0;whiteSpace=wrap;html=1;" vertex="1" parent="1">
          <mxGeometry x="140" y="810" width="80" height="40" as="geometry" />
        </mxCell>
        <mxCell id="nLEHjyZ-f05mS-KULYMX-26" value="time" style="rounded=0;whiteSpace=wrap;html=1;" vertex="1" parent="1">
          <mxGeometry x="220" y="810" width="80" height="40" as="geometry" />
        </mxCell>
        <mxCell id="nLEHjyZ-f05mS-KULYMX-27" value="Order" style="rounded=0;whiteSpace=wrap;html=1;" vertex="1" parent="1">
          <mxGeometry x="50" y="880" width="90" height="40" as="geometry" />
        </mxCell>
        <mxCell id="nLEHjyZ-f05mS-KULYMX-28" value="" style="rounded=0;whiteSpace=wrap;html=1;" vertex="1" parent="1">
          <mxGeometry x="50" y="920" width="400" height="40" as="geometry" />
        </mxCell>
        <mxCell id="nLEHjyZ-f05mS-KULYMX-29" value="&lt;u&gt;order_id&lt;/u&gt;" style="rounded=0;whiteSpace=wrap;html=1;" vertex="1" parent="1">
          <mxGeometry x="50" y="920" width="90" height="40" as="geometry" />
        </mxCell>
        <mxCell id="nLEHjyZ-f05mS-KULYMX-30" value="time" style="rounded=0;whiteSpace=wrap;html=1;" vertex="1" parent="1">
          <mxGeometry x="140" y="920" width="80" height="40" as="geometry" />
        </mxCell>
        <mxCell id="nLEHjyZ-f05mS-KULYMX-31" value="status" style="rounded=0;whiteSpace=wrap;html=1;" vertex="1" parent="1">
          <mxGeometry x="220" y="920" width="80" height="40" as="geometry" />
        </mxCell>
      </root>
    </mxGraphModel>
  </diagram>
</mxfile>
